<svg width="96" height="96" fill="#e74c3c" xmlns="http://www.w3.org/2000/svg" xmlns:xlink="http://www.w3.org/1999/xlink" xml:space="preserve" overflow="hidden"><g transform="translate(-159 -134)"><path d="M207 178C202 178 198 174 198 169 198 164 202 160 207 160 212 160 216 164 216 169 216 174 212 178 207 178ZM207 148C200.1 148 193.6 151.4 189.7 157.2 185.8 162.9 185 170.2 187.5 176.7L197 197.7 205.2 214.9C205.5 215.6 206.2 216 207 216 207.8 216 208.5 215.6 208.8 214.9L217 197.7 226.5 176.7C229 170.2 228.2 162.9 224.3 157.2 220.4 151.4 213.9 148 207 148Z"/></g></svg>